<svg width="256" height="256" viewBox="0 0 256 256" fill="none" xmlns="http://www.w3.org/2000/svg">
<g clip-path="url(#clip0)" filter="url(#filter0_d)">
<path d="M128 248C182.336 248 212.542 248 232.271 228.271C252 208.542 252 178.336 252 124C252 69.6639 252 39.4577 232.271 19.7288C212.542 -3.28488e-06 182.336 0 128 0C73.6639 0 43.4577 -3.28488e-06 23.7288 19.7288C4 39.4577 4 69.6639 4 124C4 178.336 4 208.542 23.7288 228.271C43.4577 248 73.6639 248 128 248Z" fill="url(#paint0_radial)"/>
<g filter="url(#filter1_ii)">
<path d="M128 34C78.305 34 38 74.2975 38 124C38 163.765 63.785 197.5 99.5525 209.402C104.045 210.235 105.5 207.445 105.5 205.075V188.32C80.465 193.765 75.2525 177.7 75.2525 177.7C71.1575 167.298 65.255 164.53 65.255 164.53C57.0875 158.942 65.8775 159.062 65.8775 159.062C74.915 159.692 79.67 168.34 79.67 168.34C87.695 182.095 100.723 178.12 105.86 175.818C106.663 170.005 108.995 166.03 111.575 163.788C91.5875 161.5 70.5725 153.783 70.5725 119.305C70.5725 109.472 74.09 101.448 79.8425 95.1475C78.9125 92.875 75.83 83.7175 80.72 71.3275C80.72 71.3275 88.28 68.9125 105.478 80.5525C112.655 78.5575 120.35 77.56 128 77.5225C135.65 77.56 143.352 78.5575 150.545 80.5525C167.727 68.9125 175.272 71.3275 175.272 71.3275C180.17 83.725 177.087 92.8825 176.158 95.1475C181.932 101.448 185.42 109.48 185.42 119.305C185.42 153.872 164.368 161.485 144.327 163.712C147.552 166.503 150.5 171.978 150.5 180.378V205.075C150.5 207.467 151.94 210.28 156.507 209.395C192.245 197.477 218 163.75 218 124C218 74.2975 177.702 34 128 34Z" fill="#24292E"/>
</g>
<g style="mix-blend-mode:overlay">
<path d="M128 248C182.336 248 212.542 248 232.271 228.271C252 208.542 252 178.336 252 124C252 69.6639 252 39.4577 232.271 19.7288C212.542 -3.28488e-06 182.336 0 128 0C73.6639 0 43.4577 -3.28488e-06 23.7288 19.7288C4 39.4577 4 69.6639 4 124C4 178.336 4 208.542 23.7288 228.271C43.4577 248 73.6639 248 128 248Z" fill="url(#paint1_linear)"/>
</g>
<path d="M128 248C182.336 248 212.542 248 232.271 228.271C252 208.542 252 178.336 252 124C252 69.6639 252 39.4577 232.271 19.7288C212.542 -3.8147e-06 182.336 0 128 0C73.6639 0 43.4577 -3.8147e-06 23.7288 19.7288C4 39.4577 4 69.6639 4 124C4 178.336 4 208.542 23.7288 228.271C43.4577 248 73.6639 248 128 248Z" fill="url(#paint2_linear)"/>
<g style="mix-blend-mode:soft-light" filter="url(#filter2_f)">
<path d="M231.211 227.211C221.655 236.766 209.521 241.611 192.896 244.05C176.219 246.496 155.211 246.5 128 246.5C100.789 246.5 79.7809 246.496 63.1044 244.05C46.4786 241.611 34.345 236.766 24.7895 227.211C15.234 217.655 10.3893 205.521 7.95022 188.896C5.50366 172.219 5.5 151.211 5.5 124C5.5 96.7892 5.50366 75.7809 7.95022 59.1044C10.3893 42.4786 15.234 30.345 24.7895 20.7895C34.345 11.234 46.4786 6.38935 63.1044 3.95022C79.7809 1.50366 100.789 1.5 128 1.5C155.211 1.5 176.219 1.50366 192.896 3.95022C209.521 6.38935 221.655 11.234 231.211 20.7895C240.766 30.345 245.611 42.4786 248.05 59.1044C250.496 75.7809 250.5 96.7892 250.5 124C250.5 151.211 250.496 172.219 248.05 188.896C245.611 205.521 240.766 217.655 231.211 227.211Z" stroke="url(#paint3_linear)" stroke-width="3"/>
</g>
<g style="mix-blend-mode:soft-light" filter="url(#filter3_f)">
<path d="M230.857 226.857C221.404 236.31 209.388 241.125 192.823 243.555C176.191 245.995 155.225 246 128 246C100.775 246 79.809 245.995 63.177 243.555C46.6124 241.125 34.5956 236.31 25.143 226.857C15.6905 217.404 10.8751 205.388 8.44492 188.823C6.00488 172.191 6 151.225 6 124C6 96.775 6.00488 75.809 8.44492 59.177C10.8751 42.6124 15.6905 30.5956 25.143 21.143C34.5956 11.6905 46.6124 6.87506 63.177 4.44492C79.809 2.00488 100.775 2 128 2C155.225 2 176.191 2.00488 192.823 4.44492C209.388 6.87506 221.404 11.6905 230.857 21.143C240.31 30.5956 245.125 42.6124 247.555 59.177C249.995 75.809 250 96.775 250 124C250 151.225 249.995 172.191 247.555 188.823C245.125 205.388 240.31 217.404 230.857 226.857Z" stroke="url(#paint4_linear)" stroke-width="4"/>
</g>
</g>
<defs>
<filter id="filter0_d" x="0" y="0" width="256" height="256" filterUnits="userSpaceOnUse" color-interpolation-filters="sRGB">
<feFlood flood-opacity="0" result="BackgroundImageFix"/>
<feColorMatrix in="SourceAlpha" type="matrix" values="0 0 0 0 0 0 0 0 0 0 0 0 0 0 0 0 0 0 127 0" result="hardAlpha"/>
<feOffset dy="4"/>
<feGaussianBlur stdDeviation="2"/>
<feComposite in2="hardAlpha" operator="out"/>
<feColorMatrix type="matrix" values="0 0 0 0 0 0 0 0 0 0 0 0 0 0 0 0 0 0 0.25 0"/>
<feBlend mode="normal" in2="BackgroundImageFix" result="effect1_dropShadow"/>
<feBlend mode="normal" in="SourceGraphic" in2="effect1_dropShadow" result="shape"/>
</filter>
<filter id="filter1_ii" x="38" y="32" width="180" height="184" filterUnits="userSpaceOnUse" color-interpolation-filters="sRGB">
<feFlood flood-opacity="0" result="BackgroundImageFix"/>
<feBlend mode="normal" in="SourceGraphic" in2="BackgroundImageFix" result="shape"/>
<feColorMatrix in="SourceAlpha" type="matrix" values="0 0 0 0 0 0 0 0 0 0 0 0 0 0 0 0 0 0 127 0" result="hardAlpha"/>
<feOffset dy="2"/>
<feGaussianBlur stdDeviation="2"/>
<feComposite in2="hardAlpha" operator="arithmetic" k2="-1" k3="1"/>
<feColorMatrix type="matrix" values="0 0 0 0 1 0 0 0 0 1 0 0 0 0 1 0 0 0 0.25 0"/>
<feBlend mode="normal" in2="shape" result="effect1_innerShadow"/>
<feColorMatrix in="SourceAlpha" type="matrix" values="0 0 0 0 0 0 0 0 0 0 0 0 0 0 0 0 0 0 127 0" result="hardAlpha"/>
<feOffset dy="-2"/>
<feGaussianBlur stdDeviation="2"/>
<feComposite in2="hardAlpha" operator="arithmetic" k2="-1" k3="1"/>
<feColorMatrix type="matrix" values="0 0 0 0 0 0 0 0 0 0 0 0 0 0 0 0 0 0 0.12 0"/>
<feBlend mode="normal" in2="effect1_innerShadow" result="effect2_innerShadow"/>
</filter>
<filter id="filter2_f" x="2" y="-2" width="252" height="252" filterUnits="userSpaceOnUse" color-interpolation-filters="sRGB">
<feFlood flood-opacity="0" result="BackgroundImageFix"/>
<feBlend mode="normal" in="SourceGraphic" in2="BackgroundImageFix" result="shape"/>
<feGaussianBlur stdDeviation="1" result="effect1_foregroundBlur"/>
</filter>
<filter id="filter3_f" x="-2" y="-6" width="260" height="260" filterUnits="userSpaceOnUse" color-interpolation-filters="sRGB">
<feFlood flood-opacity="0" result="BackgroundImageFix"/>
<feBlend mode="normal" in="SourceGraphic" in2="BackgroundImageFix" result="shape"/>
<feGaussianBlur stdDeviation="3" result="effect1_foregroundBlur"/>
</filter>
<radialGradient id="paint0_radial" cx="0" cy="0" r="1" gradientUnits="userSpaceOnUse" gradientTransform="translate(128 124) rotate(90) scale(124)">
<stop stop-color="#FAFBFC"/>
<stop offset="1" stop-color="#F6F8FA"/>
</radialGradient>
<linearGradient id="paint1_linear" x1="1.09136" y1="4.96427e-07" x2="68.9836" y2="290.737" gradientUnits="userSpaceOnUse">
<stop stop-opacity="0"/>
<stop offset="0.605667" stop-opacity="0.0781197"/>
<stop offset="1" stop-opacity="0.26"/>
</linearGradient>
<linearGradient id="paint2_linear" x1="1.09136" y1="4.96427e-07" x2="68.9836" y2="290.737" gradientUnits="userSpaceOnUse">
<stop offset="0.140625" stop-color="white" stop-opacity="0.26"/>
<stop offset="0.640625" stop-color="white" stop-opacity="0.0781197"/>
<stop offset="1" stop-color="white" stop-opacity="0"/>
</linearGradient>
<linearGradient id="paint3_linear" x1="128" y1="248" x2="128" y2="209.25" gradientUnits="userSpaceOnUse">
<stop/>
<stop offset="1" stop-opacity="0"/>
</linearGradient>
<linearGradient id="paint4_linear" x1="128" y1="0" x2="128" y2="124" gradientUnits="userSpaceOnUse">
<stop stop-color="white"/>
<stop offset="1" stop-color="white" stop-opacity="0"/>
</linearGradient>
<clipPath id="clip0">
<rect width="248" height="248" fill="white" transform="translate(4)"/>
</clipPath>
</defs>
</svg>
