<?xml version="1.0" encoding="utf-8"?>
<!-- Generator: Adobe Illustrator 25.4.1, SVG Export Plug-In . SVG Version: 6.00 Build 0)  -->
<svg version="1.1" id="圖層_1" xmlns="http://www.w3.org/2000/svg" xmlns:xlink="http://www.w3.org/1999/xlink" x="0px" y="0px"
	 viewBox="0 0 50 50" style="enable-background:new 0 0 50 50;" xml:space="preserve">
<style type="text/css">
	.st0{fill:#FFFFFF;}
</style>
<g id="XMLID_1874_">
	<path id="XMLID_1880_" class="st0" d="M41.53,50H8.47C3.79,50,0,46.21,0,41.53V8.47C0,3.79,3.79,0,8.47,0h33.06
		C46.21,0,50,3.79,50,8.47v33.06C50,46.21,46.21,50,41.53,50z"/>
	<g id="XMLID_1875_">
		<g id="XMLID_1877_">
			<rect id="XMLID_1879_" x="13.66" y="19.43" width="5.17" height="16.72"/>
			<path id="XMLID_1878_" d="M16.23,17.24c1.69,0,3.06-1.38,3.06-3.09s-1.37-3.08-3.06-3.08c-1.69,0-3.06,1.38-3.06,3.08
				S14.54,17.24,16.23,17.24z"/>
		</g>
		<path id="XMLID_1876_" d="M27.11,27.37c0-2.35,1.08-3.75,3.15-3.75c1.9,0,2.82,1.34,2.82,3.75c0,2.41,0,8.77,0,8.77h5.15
			c0,0,0-6.11,0-10.58c0-4.48-2.54-6.64-6.08-6.64c-3.55,0-5.04,2.76-5.04,2.76v-2.25h-4.96v16.72h4.96
			C27.11,36.14,27.11,29.94,27.11,27.37z"/>
	</g>
</g>
</svg>
